<mxfile host="65bd71144e" scale="2" border="30">
    <diagram id="0QhtwqMjpmc_AO-MrRb4" name="第 1 页">
        <mxGraphModel dx="1502" dy="863" grid="1" gridSize="10" guides="1" tooltips="1" connect="1" arrows="1" fold="1" page="1" pageScale="1" pageWidth="1654" pageHeight="2336" background="#FFFFFF" math="0" shadow="0">
            <root>
                <mxCell id="0"/>
                <mxCell id="1" parent="0"/>
                <mxCell id="685" value="&lt;div style=&quot;font-size: 10.5pt&quot;&gt;ExecutorAllocationManager&lt;/div&gt;" style="rounded=0;whiteSpace=wrap;html=1;strokeColor=#FFFFFF;fillColor=#EDF2F4;fontStyle=1;fontFamily=Georgia;" parent="1" vertex="1">
                    <mxGeometry x="330" y="70" width="230" height="60" as="geometry"/>
                </mxCell>
                <mxCell id="686" value="&lt;div style=&quot;font-size: 10.5pt&quot;&gt;SparkContext&lt;br&gt;&lt;/div&gt;" style="rounded=0;whiteSpace=wrap;html=1;strokeColor=#FFFFFF;fillColor=#EDF2F4;fontStyle=1;fontFamily=Georgia;" parent="1" vertex="1">
                    <mxGeometry x="60" y="70" width="230" height="60" as="geometry"/>
                </mxCell>
                <mxCell id="687" value="&lt;div&gt;&lt;span style=&quot;font-size: 14px&quot;&gt;Standalone&lt;/span&gt;&lt;/div&gt;&lt;div&gt;&lt;span style=&quot;font-size: 14px&quot;&gt;SchedulerBackend&lt;/span&gt;&lt;br&gt;&lt;/div&gt;" style="rounded=0;whiteSpace=wrap;html=1;strokeColor=#FFFFFF;fillColor=#EDF2F4;fontStyle=1;fontFamily=Georgia;" parent="1" vertex="1">
                    <mxGeometry x="600" y="70" width="230" height="60" as="geometry"/>
                </mxCell>
                <mxCell id="688" value="&lt;div&gt;&lt;span style=&quot;font-size: 14px&quot;&gt;StandaloneAppClient&lt;/span&gt;&lt;br&gt;&lt;/div&gt;" style="rounded=0;whiteSpace=wrap;html=1;strokeColor=#FFFFFF;fillColor=#EDF2F4;fontStyle=1;fontFamily=Georgia;" parent="1" vertex="1">
                    <mxGeometry x="870" y="70" width="230" height="60" as="geometry"/>
                </mxCell>
                <mxCell id="689" value="&lt;div&gt;&lt;span style=&quot;font-size: 14px&quot;&gt;Worker&lt;/span&gt;&lt;br&gt;&lt;/div&gt;" style="rounded=0;whiteSpace=wrap;html=1;strokeColor=#FFFFFF;fillColor=#EDF2F4;fontStyle=1;fontFamily=Georgia;" parent="1" vertex="1">
                    <mxGeometry x="1410" y="70" width="230" height="60" as="geometry"/>
                </mxCell>
                <mxCell id="690" value="&lt;span style=&quot;font-size: 14px&quot;&gt;Master&lt;/span&gt;" style="rounded=0;whiteSpace=wrap;html=1;strokeColor=#FFFFFF;fillColor=#EDF2F4;fontStyle=1;fontFamily=Georgia;" parent="1" vertex="1">
                    <mxGeometry x="1140" y="70" width="230" height="60" as="geometry"/>
                </mxCell>
                <mxCell id="691" value="&lt;div style=&quot;font-size: 10.5pt&quot;&gt;ExecutorAllocationManager&lt;/div&gt;" style="rounded=0;whiteSpace=wrap;html=1;strokeColor=#FFFFFF;fillColor=#EDF2F4;fontStyle=1;fontFamily=Georgia;" parent="1" vertex="1">
                    <mxGeometry x="330" y="770" width="230" height="60" as="geometry"/>
                </mxCell>
                <mxCell id="692" value="&lt;div style=&quot;font-size: 10.5pt&quot;&gt;SparkContext&lt;br&gt;&lt;/div&gt;" style="rounded=0;whiteSpace=wrap;html=1;strokeColor=#FFFFFF;fillColor=#EDF2F4;fontStyle=1;fontFamily=Georgia;" parent="1" vertex="1">
                    <mxGeometry x="60" y="770" width="230" height="60" as="geometry"/>
                </mxCell>
                <mxCell id="693" value="&lt;div&gt;&lt;span style=&quot;font-size: 14px&quot;&gt;Standalone&lt;/span&gt;&lt;/div&gt;&lt;div&gt;&lt;span style=&quot;font-size: 14px&quot;&gt;SchedulerBackend&lt;/span&gt;&lt;br&gt;&lt;/div&gt;" style="rounded=0;whiteSpace=wrap;html=1;strokeColor=#FFFFFF;fillColor=#EDF2F4;fontStyle=1;fontFamily=Georgia;" parent="1" vertex="1">
                    <mxGeometry x="600" y="770" width="230" height="60" as="geometry"/>
                </mxCell>
                <mxCell id="694" value="&lt;div&gt;&lt;span style=&quot;font-size: 14px&quot;&gt;StandaloneAppClient&lt;/span&gt;&lt;br&gt;&lt;/div&gt;" style="rounded=0;whiteSpace=wrap;html=1;strokeColor=#FFFFFF;fillColor=#EDF2F4;fontStyle=1;fontFamily=Georgia;" parent="1" vertex="1">
                    <mxGeometry x="870" y="770" width="230" height="60" as="geometry"/>
                </mxCell>
                <mxCell id="695" value="&lt;div&gt;&lt;span style=&quot;font-size: 14px&quot;&gt;Worker&lt;/span&gt;&lt;br&gt;&lt;/div&gt;" style="rounded=0;whiteSpace=wrap;html=1;strokeColor=#FFFFFF;fillColor=#EDF2F4;fontStyle=1;fontFamily=Georgia;" parent="1" vertex="1">
                    <mxGeometry x="1410" y="770" width="230" height="60" as="geometry"/>
                </mxCell>
                <mxCell id="696" value="&lt;span style=&quot;font-size: 14px&quot;&gt;Master&lt;/span&gt;" style="rounded=0;whiteSpace=wrap;html=1;strokeColor=#FFFFFF;fillColor=#EDF2F4;fontStyle=1;fontFamily=Georgia;" parent="1" vertex="1">
                    <mxGeometry x="1140" y="770" width="230" height="60" as="geometry"/>
                </mxCell>
                <mxCell id="697" style="edgeStyle=orthogonalEdgeStyle;rounded=0;orthogonalLoop=1;jettySize=auto;html=1;fontSize=12;endArrow=none;endFill=0;endSize=4;dashed=1;strokeColor=#A7BFC9;exitX=0.5;exitY=1;exitDx=0;exitDy=0;entryX=0.5;entryY=0;entryDx=0;entryDy=0;" parent="1" source="686" target="692" edge="1">
                    <mxGeometry relative="1" as="geometry">
                        <mxPoint x="158.5" y="130" as="sourcePoint"/>
                        <mxPoint x="175" y="590" as="targetPoint"/>
                    </mxGeometry>
                </mxCell>
                <mxCell id="698" style="edgeStyle=orthogonalEdgeStyle;rounded=0;orthogonalLoop=1;jettySize=auto;html=1;fontSize=12;endArrow=none;endFill=0;endSize=4;dashed=1;strokeColor=#A7BFC9;exitX=0.5;exitY=1;exitDx=0;exitDy=0;entryX=0.5;entryY=0;entryDx=0;entryDy=0;" parent="1" source="685" target="691" edge="1">
                    <mxGeometry relative="1" as="geometry">
                        <mxPoint x="290" y="150" as="sourcePoint"/>
                        <mxPoint x="290" y="610" as="targetPoint"/>
                    </mxGeometry>
                </mxCell>
                <mxCell id="699" style="edgeStyle=orthogonalEdgeStyle;rounded=0;orthogonalLoop=1;jettySize=auto;html=1;fontSize=12;endArrow=none;endFill=0;endSize=4;dashed=1;strokeColor=#A7BFC9;exitX=0.5;exitY=1;exitDx=0;exitDy=0;entryX=0.5;entryY=0;entryDx=0;entryDy=0;" parent="1" source="687" target="693" edge="1">
                    <mxGeometry relative="1" as="geometry">
                        <mxPoint x="600" y="150" as="sourcePoint"/>
                        <mxPoint x="600" y="610" as="targetPoint"/>
                    </mxGeometry>
                </mxCell>
                <mxCell id="700" style="edgeStyle=orthogonalEdgeStyle;rounded=0;orthogonalLoop=1;jettySize=auto;html=1;fontSize=12;endArrow=none;endFill=0;endSize=4;dashed=1;strokeColor=#A7BFC9;exitX=0.5;exitY=1;exitDx=0;exitDy=0;entryX=0.5;entryY=0;entryDx=0;entryDy=0;" parent="1" source="688" target="694" edge="1">
                    <mxGeometry relative="1" as="geometry">
                        <mxPoint x="890" y="150" as="sourcePoint"/>
                        <mxPoint x="890" y="610" as="targetPoint"/>
                    </mxGeometry>
                </mxCell>
                <mxCell id="701" style="edgeStyle=orthogonalEdgeStyle;rounded=0;orthogonalLoop=1;jettySize=auto;html=1;fontSize=12;endArrow=none;endFill=0;endSize=4;dashed=1;strokeColor=#A7BFC9;exitX=0.5;exitY=1;exitDx=0;exitDy=0;entryX=0.5;entryY=0;entryDx=0;entryDy=0;" parent="1" source="690" target="696" edge="1">
                    <mxGeometry relative="1" as="geometry">
                        <mxPoint x="1120" y="140" as="sourcePoint"/>
                        <mxPoint x="1120" y="600" as="targetPoint"/>
                    </mxGeometry>
                </mxCell>
                <mxCell id="702" style="edgeStyle=orthogonalEdgeStyle;rounded=0;orthogonalLoop=1;jettySize=auto;html=1;fontSize=12;endArrow=none;endFill=0;endSize=4;dashed=1;strokeColor=#A7BFC9;exitX=0.5;exitY=1;exitDx=0;exitDy=0;entryX=0.5;entryY=0;entryDx=0;entryDy=0;" parent="1" source="689" target="695" edge="1">
                    <mxGeometry relative="1" as="geometry">
                        <mxPoint x="1350" y="140" as="sourcePoint"/>
                        <mxPoint x="1350" y="600" as="targetPoint"/>
                    </mxGeometry>
                </mxCell>
                <mxCell id="704" style="edgeStyle=orthogonalEdgeStyle;rounded=0;orthogonalLoop=1;jettySize=auto;html=1;fontColor=#345253;endArrow=block;endFill=1;dashed=1;" parent="1" source="703" edge="1">
                    <mxGeometry relative="1" as="geometry">
                        <mxPoint x="445" y="190" as="targetPoint"/>
                    </mxGeometry>
                </mxCell>
                <mxCell id="703" value="&lt;font color=&quot;#ffffff&quot; style=&quot;font-size: 12px&quot;&gt;1&lt;/font&gt;" style="ellipse;whiteSpace=wrap;html=1;aspect=fixed;strokeColor=none;fillColor=#345253;fontSize=12;" parent="1" vertex="1">
                    <mxGeometry x="165" y="180" width="20" height="20" as="geometry"/>
                </mxCell>
                <mxCell id="705" value="ExecutorAllocationManager.start" style="text;html=1;strokeColor=none;fillColor=none;align=center;verticalAlign=middle;whiteSpace=wrap;rounded=0;fontSize=12;" parent="1" vertex="1">
                    <mxGeometry x="185" y="170" width="255" height="20" as="geometry"/>
                </mxCell>
                <mxCell id="707" style="edgeStyle=orthogonalEdgeStyle;rounded=0;orthogonalLoop=1;jettySize=auto;html=1;dashed=1;fontColor=#345253;endArrow=block;endFill=1;strokeColor=#000000;" parent="1" source="706" edge="1">
                    <mxGeometry relative="1" as="geometry">
                        <mxPoint x="715" y="240" as="targetPoint"/>
                    </mxGeometry>
                </mxCell>
                <mxCell id="706" value="&lt;font color=&quot;#ffffff&quot; style=&quot;font-size: 12px&quot;&gt;2&lt;/font&gt;" style="ellipse;whiteSpace=wrap;html=1;aspect=fixed;strokeColor=none;fillColor=#345253;fontSize=12;" parent="1" vertex="1">
                    <mxGeometry x="435" y="230" width="20" height="20" as="geometry"/>
                </mxCell>
                <mxCell id="708" value="ExecutorAllocationClient.requestTotalExecutors" style="text;html=1;strokeColor=none;fillColor=none;align=center;verticalAlign=middle;whiteSpace=wrap;rounded=0;fontSize=12;" parent="1" vertex="1">
                    <mxGeometry x="455" y="220" width="255" height="20" as="geometry"/>
                </mxCell>
                <mxCell id="710" style="edgeStyle=orthogonalEdgeStyle;rounded=0;orthogonalLoop=1;jettySize=auto;html=1;dashed=1;fontColor=#345253;endArrow=block;endFill=1;strokeColor=#000000;" parent="1" source="709" edge="1">
                    <mxGeometry relative="1" as="geometry">
                        <mxPoint x="985" y="290" as="targetPoint"/>
                    </mxGeometry>
                </mxCell>
                <mxCell id="709" value="&lt;font color=&quot;#ffffff&quot; style=&quot;font-size: 12px&quot;&gt;3&lt;/font&gt;" style="ellipse;whiteSpace=wrap;html=1;aspect=fixed;strokeColor=none;fillColor=#345253;fontSize=12;" parent="1" vertex="1">
                    <mxGeometry x="705" y="280" width="20" height="20" as="geometry"/>
                </mxCell>
                <mxCell id="711" value="doRequestTotalExecutors" style="text;html=1;strokeColor=none;fillColor=none;align=center;verticalAlign=middle;whiteSpace=wrap;rounded=0;fontSize=12;" parent="1" vertex="1">
                    <mxGeometry x="725" y="270" width="255" height="20" as="geometry"/>
                </mxCell>
                <mxCell id="713" style="edgeStyle=orthogonalEdgeStyle;rounded=0;orthogonalLoop=1;jettySize=auto;html=1;dashed=1;fontColor=#345253;endArrow=block;endFill=1;strokeColor=#000000;" parent="1" source="712" edge="1">
                    <mxGeometry relative="1" as="geometry">
                        <mxPoint x="1255" y="340" as="targetPoint"/>
                    </mxGeometry>
                </mxCell>
                <mxCell id="712" value="&lt;font color=&quot;#ffffff&quot; style=&quot;font-size: 12px&quot;&gt;4&lt;/font&gt;" style="ellipse;whiteSpace=wrap;html=1;aspect=fixed;strokeColor=none;fillColor=#345253;fontSize=12;" parent="1" vertex="1">
                    <mxGeometry x="975" y="330" width="20" height="20" as="geometry"/>
                </mxCell>
                <mxCell id="714" value="RpcEndPointRef.ask(&lt;b&gt;&lt;i&gt;RequestExecutors&lt;/i&gt;&lt;/b&gt;)" style="text;html=1;strokeColor=none;fillColor=none;align=center;verticalAlign=middle;whiteSpace=wrap;rounded=0;fontSize=12;" parent="1" vertex="1">
                    <mxGeometry x="995" y="320" width="255" height="20" as="geometry"/>
                </mxCell>
                <mxCell id="717" style="edgeStyle=orthogonalEdgeStyle;rounded=0;orthogonalLoop=1;jettySize=auto;html=1;dashed=1;fontColor=#345253;endArrow=block;endFill=1;strokeColor=#000000;" parent="1" source="715" edge="1">
                    <mxGeometry relative="1" as="geometry">
                        <mxPoint x="1255" y="430" as="targetPoint"/>
                        <Array as="points">
                            <mxPoint x="1300" y="390"/>
                            <mxPoint x="1300" y="430"/>
                            <mxPoint x="1255" y="430"/>
                        </Array>
                    </mxGeometry>
                </mxCell>
                <mxCell id="715" value="&lt;font color=&quot;#ffffff&quot; style=&quot;font-size: 12px&quot;&gt;5&lt;/font&gt;" style="ellipse;whiteSpace=wrap;html=1;aspect=fixed;strokeColor=none;fillColor=#345253;fontSize=12;" parent="1" vertex="1">
                    <mxGeometry x="1245" y="380" width="20" height="20" as="geometry"/>
                </mxCell>
                <mxCell id="718" value="handleRequestExecutors(&lt;b&gt;&lt;i&gt;appId&lt;/i&gt;&lt;/b&gt;)" style="text;html=1;strokeColor=none;fillColor=none;align=center;verticalAlign=middle;whiteSpace=wrap;rounded=0;fontSize=12;" parent="1" vertex="1">
                    <mxGeometry x="1310" y="400" width="170" height="20" as="geometry"/>
                </mxCell>
                <mxCell id="720" style="edgeStyle=orthogonalEdgeStyle;rounded=0;orthogonalLoop=1;jettySize=auto;html=1;dashed=1;fontColor=#345253;endArrow=block;endFill=1;strokeColor=#000000;" parent="1" source="719" edge="1">
                    <mxGeometry relative="1" as="geometry">
                        <mxPoint x="1525" y="480" as="targetPoint"/>
                    </mxGeometry>
                </mxCell>
                <mxCell id="719" value="&lt;font color=&quot;#ffffff&quot; style=&quot;font-size: 12px&quot;&gt;6&lt;/font&gt;" style="ellipse;whiteSpace=wrap;html=1;aspect=fixed;strokeColor=none;fillColor=#345253;fontSize=12;" parent="1" vertex="1">
                    <mxGeometry x="1245" y="470" width="20" height="20" as="geometry"/>
                </mxCell>
                <mxCell id="721" value="RpcEndPointRef.send(&lt;b&gt;&lt;i&gt;LaunchExecutor&lt;/i&gt;&lt;/b&gt;)" style="text;html=1;strokeColor=none;fillColor=none;align=center;verticalAlign=middle;whiteSpace=wrap;rounded=0;fontSize=12;" parent="1" vertex="1">
                    <mxGeometry x="1265" y="460" width="255" height="20" as="geometry"/>
                </mxCell>
                <mxCell id="728" style="edgeStyle=orthogonalEdgeStyle;rounded=0;orthogonalLoop=1;jettySize=auto;html=1;dashed=1;fontColor=#345253;endArrow=block;endFill=1;strokeColor=#000000;" parent="1" source="722" edge="1">
                    <mxGeometry relative="1" as="geometry">
                        <mxPoint x="1795" y="530" as="targetPoint"/>
                    </mxGeometry>
                </mxCell>
                <mxCell id="722" value="&lt;font color=&quot;#ffffff&quot; style=&quot;font-size: 12px&quot;&gt;7&lt;/font&gt;" style="ellipse;whiteSpace=wrap;html=1;aspect=fixed;strokeColor=none;fillColor=#345253;fontSize=12;" parent="1" vertex="1">
                    <mxGeometry x="1515" y="520" width="20" height="20" as="geometry"/>
                </mxCell>
                <mxCell id="724" value="RpcEndPointRef.send(&lt;b&gt;&lt;i&gt;ExecutorAdded&lt;/i&gt;&lt;/b&gt;)" style="text;html=1;strokeColor=none;fillColor=none;align=center;verticalAlign=middle;whiteSpace=wrap;rounded=0;fontSize=12;" parent="1" vertex="1">
                    <mxGeometry x="990" y="700" width="255" height="20" as="geometry"/>
                </mxCell>
                <mxCell id="725" value="&lt;div&gt;&lt;span style=&quot;font-size: 14px&quot;&gt;CoarseGrained&lt;/span&gt;&lt;/div&gt;&lt;div&gt;&lt;span style=&quot;font-size: 14px&quot;&gt;ExecutorBackend&lt;/span&gt;&lt;br&gt;&lt;/div&gt;" style="rounded=0;whiteSpace=wrap;html=1;strokeColor=#FFFFFF;fillColor=#EDF2F4;fontStyle=1;fontFamily=Georgia;" parent="1" vertex="1">
                    <mxGeometry x="1680" y="70" width="230" height="60" as="geometry"/>
                </mxCell>
                <mxCell id="726" value="&lt;div&gt;&lt;span style=&quot;font-size: 14px&quot;&gt;CoarseGrained&lt;/span&gt;&lt;/div&gt;&lt;div&gt;&lt;span style=&quot;font-size: 14px&quot;&gt;ExecutorBackend&lt;/span&gt;&lt;br&gt;&lt;/div&gt;" style="rounded=0;whiteSpace=wrap;html=1;strokeColor=#FFFFFF;fillColor=#EDF2F4;fontStyle=1;fontFamily=Georgia;" parent="1" vertex="1">
                    <mxGeometry x="1680" y="770" width="230" height="60" as="geometry"/>
                </mxCell>
                <mxCell id="727" style="edgeStyle=orthogonalEdgeStyle;rounded=0;orthogonalLoop=1;jettySize=auto;html=1;fontSize=12;endArrow=none;endFill=0;endSize=4;dashed=1;strokeColor=#A7BFC9;exitX=0.5;exitY=1;exitDx=0;exitDy=0;entryX=0.5;entryY=0;entryDx=0;entryDy=0;" parent="1" source="725" target="726" edge="1">
                    <mxGeometry relative="1" as="geometry">
                        <mxPoint x="1730" y="150" as="sourcePoint"/>
                        <mxPoint x="1730" y="770" as="targetPoint"/>
                    </mxGeometry>
                </mxCell>
                <mxCell id="729" value="ExecutorRunner use command to launch&amp;nbsp;&lt;br&gt;CoarseGrainedExecutorBackend" style="text;html=1;strokeColor=none;fillColor=none;align=center;verticalAlign=middle;whiteSpace=wrap;rounded=0;fontSize=12;" parent="1" vertex="1">
                    <mxGeometry x="1535" y="495" width="255" height="35" as="geometry"/>
                </mxCell>
                <mxCell id="731" style="edgeStyle=orthogonalEdgeStyle;rounded=0;orthogonalLoop=1;jettySize=auto;html=1;exitX=0;exitY=0.5;exitDx=0;exitDy=0;dashed=1;fontColor=#345253;endArrow=block;endFill=1;strokeColor=#000000;" parent="1" source="730" edge="1">
                    <mxGeometry relative="1" as="geometry">
                        <mxPoint x="715" y="580.1666666666667" as="targetPoint"/>
                    </mxGeometry>
                </mxCell>
                <mxCell id="730" value="&lt;font color=&quot;#ffffff&quot; style=&quot;font-size: 12px&quot;&gt;8&lt;/font&gt;" style="ellipse;whiteSpace=wrap;html=1;aspect=fixed;strokeColor=none;fillColor=#345253;fontSize=12;" parent="1" vertex="1">
                    <mxGeometry x="1785" y="570" width="20" height="20" as="geometry"/>
                </mxCell>
                <mxCell id="732" value="RpcEndPointRef.ask(&lt;b&gt;&lt;i&gt;RegisterExecutor&lt;/i&gt;&lt;/b&gt;)" style="text;html=1;strokeColor=none;fillColor=none;align=center;verticalAlign=middle;whiteSpace=wrap;rounded=0;fontSize=12;" parent="1" vertex="1">
                    <mxGeometry x="1127.5" y="560" width="255" height="20" as="geometry"/>
                </mxCell>
                <mxCell id="734" style="edgeStyle=orthogonalEdgeStyle;rounded=0;orthogonalLoop=1;jettySize=auto;html=1;dashed=1;fontColor=#345253;endArrow=block;endFill=1;strokeColor=#000000;" parent="1" source="733" edge="1">
                    <mxGeometry relative="1" as="geometry">
                        <mxPoint x="715" y="670" as="targetPoint"/>
                        <Array as="points">
                            <mxPoint x="760" y="630"/>
                            <mxPoint x="760" y="670"/>
                        </Array>
                    </mxGeometry>
                </mxCell>
                <mxCell id="733" value="&lt;font color=&quot;#ffffff&quot; style=&quot;font-size: 12px&quot;&gt;9&lt;/font&gt;" style="ellipse;whiteSpace=wrap;html=1;aspect=fixed;strokeColor=none;fillColor=#345253;fontSize=12;" parent="1" vertex="1">
                    <mxGeometry x="705" y="620" width="20" height="20" as="geometry"/>
                </mxCell>
                <mxCell id="735" value="put Executor to &lt;b&gt;&lt;i&gt;ExecutorDataMap&lt;/i&gt;&lt;/b&gt;" style="text;html=1;strokeColor=none;fillColor=none;align=center;verticalAlign=middle;whiteSpace=wrap;rounded=0;fontSize=12;" parent="1" vertex="1">
                    <mxGeometry x="760.5" y="640" width="192.5" height="20" as="geometry"/>
                </mxCell>
                <mxCell id="737" style="edgeStyle=orthogonalEdgeStyle;rounded=0;orthogonalLoop=1;jettySize=auto;html=1;dashed=1;fontColor=#345253;endArrow=block;endFill=1;strokeColor=#000000;" parent="1" source="736" edge="1">
                    <mxGeometry relative="1" as="geometry">
                        <mxPoint x="985" y="720" as="targetPoint"/>
                    </mxGeometry>
                </mxCell>
                <mxCell id="736" value="&lt;font color=&quot;#ffffff&quot; style=&quot;font-size: 12px&quot;&gt;10&lt;/font&gt;" style="ellipse;whiteSpace=wrap;html=1;aspect=fixed;strokeColor=none;fillColor=#345253;fontSize=12;" parent="1" vertex="1">
                    <mxGeometry x="1245" y="710" width="20" height="20" as="geometry"/>
                </mxCell>
            </root>
        </mxGraphModel>
    </diagram>
</mxfile>